{
.appVersion = "1075";
copyright = "Copyright 2016 The Rounded M+ Project Authors.";
customParameters = (
{
name = vendorID;
value = "M+  ";
},
{
name = panose;
value = (
2,
11,
4,
3,
2,
2,
3,
2,
2,
7
);
},
{
name = unicodeRanges;
value = (
0,
1,
2,
3,
4,
5,
6,
7,
9,
11,
24,
29,
30,
31,
32,
33,
35,
36,
37,
38,
39,
40,
42,
43,
44,
45,
46,
47,
48,
49,
50,
54,
57,
59,
61,
62,
65,
68,
89
);
},
{
name = codePageRanges;
value = (
1252,
1250,
1251,
1253,
1254,
1255,
1257,
1258,
932,
950,
869,
866,
865,
863,
862,
861,
860,
857,
855,
852,
775,
737,
850,
437
);
},
{
name = glyphOrder;
value = (
.notdef,
space
);
}
);
date = "2015-05-28 17:10:30 +0000";
familyName = "Yaku Han RP";
fontMaster = (
{
ascender = 860;
capHeight = 700;
customParameters = (
{
name = typoAscender;
value = 860;
},
{
name = typoDescender;
value = -140;
},
{
name = typoLineGap;
value = 90;
},
{
name = winAscent;
value = 1075;
},
{
name = winDescent;
value = 320;
},
{
name = hheaAscender;
value = 1075;
},
{
name = hheaDescender;
value = -320;
},
{
name = underlinePosition;
value = -150;
}
);
descender = -140;
id = "5B63282A-28A3-4184-9BFD-1C91A342A3DF";
weight = Light;
weightValue = 300;
widthValue = 5;
xHeight = 500;
}
);
glyphs = (
{
glyphname = ellipsis;
lastChange = "2017-12-21 08:39:52 +0000";
layers = (
{
layerId = "5B63282A-28A3-4184-9BFD-1C91A342A3DF";
paths = (
{
closed = 1;
nodes = (
"858 308 OFFCURVE",
"861 315 OFFCURVE",
"861 323 CURVE SMOOTH",
"861 397 LINE SMOOTH",
"861 413 OFFCURVE",
"849 425 OFFCURVE",
"833 425 CURVE SMOOTH",
"817 425 OFFCURVE",
"805 413 OFFCURVE",
"805 397 CURVE SMOOTH",
"805 323 LINE SMOOTH",
"805 307 OFFCURVE",
"817 295 OFFCURVE",
"833 295 CURVE SMOOTH",
"841 295 OFFCURVE",
"848 298 OFFCURVE",
"853 303 CURVE SMOOTH"
);
},
{
closed = 1;
nodes = (
"525 308 OFFCURVE",
"528 315 OFFCURVE",
"528 323 CURVE SMOOTH",
"528 397 LINE SMOOTH",
"528 413 OFFCURVE",
"516 425 OFFCURVE",
"500 425 CURVE SMOOTH",
"484 425 OFFCURVE",
"472 413 OFFCURVE",
"472 397 CURVE SMOOTH",
"472 323 LINE SMOOTH",
"472 307 OFFCURVE",
"484 295 OFFCURVE",
"500 295 CURVE SMOOTH",
"508 295 OFFCURVE",
"515 298 OFFCURVE",
"520 303 CURVE SMOOTH"
);
},
{
closed = 1;
nodes = (
"192 308 OFFCURVE",
"195 315 OFFCURVE",
"195 323 CURVE SMOOTH",
"195 397 LINE SMOOTH",
"195 413 OFFCURVE",
"183 425 OFFCURVE",
"167 425 CURVE SMOOTH",
"151 425 OFFCURVE",
"139 413 OFFCURVE",
"139 397 CURVE SMOOTH",
"139 323 LINE SMOOTH",
"139 307 OFFCURVE",
"151 295 OFFCURVE",
"167 295 CURVE SMOOTH",
"175 295 OFFCURVE",
"182 298 OFFCURVE",
"187 303 CURVE SMOOTH"
);
}
);
vertWidth = 1000;
width = 1000;
}
);
note = ellipsis;
unicode = 2026;
},
{
glyphname = colon.full;
lastChange = "2017-12-21 08:41:24 +0000";
layers = (
{
layerId = "5B63282A-28A3-4184-9BFD-1C91A342A3DF";
paths = (
{
closed = 1;
nodes = (
"203 97 OFFCURVE",
"206 104 OFFCURVE",
"206 112 CURVE SMOOTH",
"206 178 LINE SMOOTH",
"206 194 OFFCURVE",
"194 207 OFFCURVE",
"178 207 CURVE SMOOTH",
"162 207 OFFCURVE",
"150 194 OFFCURVE",
"150 178 CURVE SMOOTH",
"150 112 LINE SMOOTH",
"150 96 OFFCURVE",
"162 83 OFFCURVE",
"178 83 CURVE SMOOTH",
"186 83 OFFCURVE",
"193 86 OFFCURVE",
"198 92 CURVE"
);
},
{
closed = 1;
nodes = (
"203 527 OFFCURVE",
"206 534 OFFCURVE",
"206 542 CURVE SMOOTH",
"206 608 LINE SMOOTH",
"206 624 OFFCURVE",
"194 637 OFFCURVE",
"178 637 CURVE SMOOTH",
"162 637 OFFCURVE",
"150 624 OFFCURVE",
"150 608 CURVE SMOOTH",
"150 542 LINE SMOOTH",
"150 526 OFFCURVE",
"162 513 OFFCURVE",
"178 513 CURVE SMOOTH",
"186 513 OFFCURVE",
"193 516 OFFCURVE",
"198 522 CURVE"
);
}
);
vertWidth = 1000;
width = 356;
}
);
note = uniFF1A;
unicode = FF1A;
},
{
glyphname = exclam.full;
lastChange = "2017-12-21 08:41:24 +0000";
layers = (
{
layerId = "5B63282A-28A3-4184-9BFD-1C91A342A3DF";
paths = (
{
closed = 1;
nodes = (
"200 208 OFFCURVE",
"202 213 OFFCURVE",
"202 220 CURVE SMOOTH",
"206 702 LINE SMOOTH",
"206 718 OFFCURVE",
"194 730 OFFCURVE",
"178 730 CURVE SMOOTH",
"162 730 OFFCURVE",
"150 718 OFFCURVE",
"150 702 CURVE SMOOTH",
"154 220 LINE SMOOTH",
"154 207 OFFCURVE",
"165 197 OFFCURVE",
"178 197 CURVE SMOOTH",
"185 197 OFFCURVE",
"190 199 OFFCURVE",
"195 204 CURVE"
);
},
{
closed = 1;
nodes = (
"154 104 OFFCURVE",
"151 97 OFFCURVE",
"151 90 CURVE SMOOTH",
"151 27 LINE SMOOTH",
"151 12 OFFCURVE",
"163 0 OFFCURVE",
"178 0 CURVE SMOOTH",
"193 0 OFFCURVE",
"205 12 OFFCURVE",
"205 27 CURVE SMOOTH",
"205 90 LINE SMOOTH",
"205 105 OFFCURVE",
"193 117 OFFCURVE",
"178 117 CURVE SMOOTH",
"171 117 OFFCURVE",
"164 114 OFFCURVE",
"159 109 CURVE SMOOTH"
);
}
);
vertWidth = 1000;
width = 356;
}
);
note = uniFF01;
unicode = FF01;
},
{
glyphname = question.full;
lastChange = "2017-12-21 08:41:24 +0000";
layers = (
{
layerId = "5B63282A-28A3-4184-9BFD-1C91A342A3DF";
paths = (
{
closed = 1;
nodes = (
"247 686 OFFCURVE",
"319 696 OFFCURVE",
"390 696 CURVE SMOOTH",
"530 696 OFFCURVE",
"605 653 OFFCURVE",
"605 580 CURVE SMOOTH",
"605 540 OFFCURVE",
"593 510 OFFCURVE",
"564 483 CURVE SMOOTH",
"535 455 OFFCURVE",
"521 447 OFFCURVE",
"477 420 CURVE SMOOTH",
"430 392 OFFCURVE",
"414 380 OFFCURVE",
"379 348 CURVE SMOOTH",
"343 315 OFFCURVE",
"325 275 OFFCURVE",
"320 224 CURVE SMOOTH",
"319 209 OFFCURVE",
"330 198 OFFCURVE",
"343 198 CURVE SMOOTH",
"358 198 OFFCURVE",
"369 210 OFFCURVE",
"370 223 CURVE",
"375 267 OFFCURVE",
"390 300 OFFCURVE",
"422 329 CURVE SMOOTH",
"453 357 OFFCURVE",
"469 368 OFFCURVE",
"514 395 CURVE SMOOTH",
"562 424 OFFCURVE",
"578 434 OFFCURVE",
"611 466 CURVE SMOOTH",
"643 497 OFFCURVE",
"657 535 OFFCURVE",
"657 583 CURVE SMOOTH",
"657 680 OFFCURVE",
"562 740 OFFCURVE",
"395 740 CURVE SMOOTH",
"316 740 OFFCURVE",
"239 730 OFFCURVE",
"166 711 CURVE",
"160 710 OFFCURVE",
"156 706 OFFCURVE",
"153 701 CURVE",
"147 689 OFFCURVE",
"148 660 OFFCURVE",
"176 667 CURVE SMOOTH"
);
},
{
closed = 1;
nodes = (
"320 104 OFFCURVE",
"317 97 OFFCURVE",
"317 90 CURVE SMOOTH",
"317 27 LINE SMOOTH",
"317 12 OFFCURVE",
"328 0 OFFCURVE",
"343 0 CURVE SMOOTH",
"358 0 OFFCURVE",
"370 12 OFFCURVE",
"370 27 CURVE SMOOTH",
"370 90 LINE SMOOTH",
"370 105 OFFCURVE",
"358 117 OFFCURVE",
"343 117 CURVE SMOOTH",
"336 117 OFFCURVE",
"330 114 OFFCURVE",
"325 109 CURVE SMOOTH"
);
}
);
vertWidth = 1000;
width = 807;
}
);
note = uniFF1F;
unicode = FF1F;
},
{
glyphname = semicolon.full;
lastChange = "2017-12-21 08:41:24 +0000";
layers = (
{
layerId = "5B63282A-28A3-4184-9BFD-1C91A342A3DF";
paths = (
{
closed = 1;
nodes = (
"182 -27 OFFCURVE",
"193 -19 OFFCURVE",
"199 -4 CURVE SMOOTH",
"270 178 LINE",
"275 193 OFFCURVE",
"265 207 OFFCURVE",
"250 207 CURVE SMOOTH",
"230 207 OFFCURVE",
"217 197 OFFCURVE",
"210 178 CURVE",
"151 -4 LINE",
"147 -15 OFFCURVE",
"155 -27 OFFCURVE",
"167 -27 CURVE SMOOTH"
);
},
{
closed = 1;
nodes = (
"213 623 OFFCURVE",
"210 616 OFFCURVE",
"210 608 CURVE SMOOTH",
"210 542 LINE SMOOTH",
"210 526 OFFCURVE",
"222 513 OFFCURVE",
"238 513 CURVE SMOOTH",
"254 513 OFFCURVE",
"266 526 OFFCURVE",
"266 542 CURVE SMOOTH",
"266 608 LINE SMOOTH",
"266 624 OFFCURVE",
"254 637 OFFCURVE",
"238 637 CURVE SMOOTH",
"230 637 OFFCURVE",
"223 634 OFFCURVE",
"218 629 CURVE"
);
}
);
vertWidth = 1000;
width = 421;
}
);
note = uniFF1B;
unicode = FF1B;
},
{
glyphname = anglebracketleft;
lastChange = "2017-12-21 08:41:43 +0000";
layers = (
{
layerId = "5B63282A-28A3-4184-9BFD-1C91A342A3DF";
paths = (
{
closed = 1;
nodes = (
"504 794 OFFCURVE",
"498 808 OFFCURVE",
"487 808 CURVE SMOOTH",
"470 808 OFFCURVE",
"457 800 OFFCURVE",
"447 785 CURVE SMOOTH",
"213 408 LINE SMOOTH",
"204 393 OFFCURVE",
"200 377 OFFCURVE",
"200 360 CURVE SMOOTH",
"200 343 OFFCURVE",
"204 327 OFFCURVE",
"213 312 CURVE SMOOTH",
"447 -65 LINE SMOOTH",
"456 -80 OFFCURVE",
"470 -87 OFFCURVE",
"487 -87 CURVE SMOOTH",
"498 -87 OFFCURVE",
"504 -74 OFFCURVE",
"499 -65 CURVE",
"241 353 LINE SMOOTH",
"238 358 OFFCURVE",
"238 362 OFFCURVE",
"241 367 CURVE SMOOTH",
"499 785 LINE"
);
}
);
vertWidth = 1000;
width = 531;
}
);
note = uni3008;
unicode = 3008;
},
{
glyphname = anglebracketright;
lastChange = "2017-12-21 08:41:56 +0000";
layers = (
{
layerId = "5B63282A-28A3-4184-9BFD-1C91A342A3DF";
paths = (
{
closed = 1;
nodes = (
"27 -74 OFFCURVE",
"33 -88 OFFCURVE",
"44 -88 CURVE SMOOTH",
"61 -88 OFFCURVE",
"74 -80 OFFCURVE",
"84 -65 CURVE SMOOTH",
"318 312 LINE SMOOTH",
"327 327 OFFCURVE",
"331 343 OFFCURVE",
"331 360 CURVE SMOOTH",
"331 377 OFFCURVE",
"327 393 OFFCURVE",
"318 408 CURVE SMOOTH",
"84 785 LINE SMOOTH",
"75 800 OFFCURVE",
"61 807 OFFCURVE",
"44 807 CURVE SMOOTH",
"33 807 OFFCURVE",
"27 794 OFFCURVE",
"32 785 CURVE",
"290 367 LINE SMOOTH",
"293 362 OFFCURVE",
"293 358 OFFCURVE",
"290 353 CURVE SMOOTH",
"32 -65 LINE"
);
}
);
vertWidth = 1000;
width = 531;
}
);
note = uni3009;
unicode = 3009;
},
{
glyphname = blacklenticularbracketleft;
lastChange = "2017-12-21 08:41:43 +0000";
layers = (
{
layerId = "5B63282A-28A3-4184-9BFD-1C91A342A3DF";
paths = (
{
closed = 1;
nodes = (
"446 -88 OFFCURVE",
"457 -62 OFFCURVE",
"442 -47 CURVE",
"339 66 OFFCURVE",
"282 212 OFFCURVE",
"282 360 CURVE SMOOTH",
"282 508 OFFCURVE",
"339 654 OFFCURVE",
"442 767 CURVE",
"457 782 OFFCURVE",
"446 808 OFFCURVE",
"425 808 CURVE SMOOTH",
"257 808 LINE SMOOTH",
"226 808 OFFCURVE",
"200 782 OFFCURVE",
"200 751 CURVE SMOOTH",
"200 -31 LINE SMOOTH",
"200 -62 OFFCURVE",
"226 -88 OFFCURVE",
"257 -88 CURVE SMOOTH",
"425 -88 LINE SMOOTH"
);
}
);
vertWidth = 1000;
width = 479;
}
);
note = uni3010;
unicode = 3010;
},
{
glyphname = blacklenticularbracketright;
lastChange = "2017-12-21 08:41:56 +0000";
layers = (
{
layerId = "5B63282A-28A3-4184-9BFD-1C91A342A3DF";
paths = (
{
closed = 1;
nodes = (
"253 -88 OFFCURVE",
"279 -62 OFFCURVE",
"279 -31 CURVE SMOOTH",
"279 751 LINE SMOOTH",
"279 782 OFFCURVE",
"253 807 OFFCURVE",
"222 807 CURVE SMOOTH",
"54 807 LINE SMOOTH",
"33 807 OFFCURVE",
"22 782 OFFCURVE",
"37 767 CURVE",
"140 654 OFFCURVE",
"197 508 OFFCURVE",
"197 360 CURVE SMOOTH",
"197 212 OFFCURVE",
"140 66 OFFCURVE",
"37 -47 CURVE",
"22 -62 OFFCURVE",
"33 -88 OFFCURVE",
"54 -88 CURVE SMOOTH",
"222 -88 LINE SMOOTH"
);
}
);
vertWidth = 1000;
width = 479;
}
);
note = uni3011;
unicode = 3011;
},
{
glyphname = braceleft.full;
lastChange = "2017-12-21 08:41:43 +0000";
layers = (
{
layerId = "5B63282A-28A3-4184-9BFD-1C91A342A3DF";
paths = (
{
closed = 1;
nodes = (
"381 386 OFFCURVE",
"405 434 OFFCURVE",
"405 506 CURVE SMOOTH",
"405 652 LINE SMOOTH",
"405 744 OFFCURVE",
"434 768 OFFCURVE",
"503 768 CURVE SMOOTH",
"626 768 LINE SMOOTH",
"637 768 OFFCURVE",
"646 777 OFFCURVE",
"646 788 CURVE SMOOTH",
"646 799 OFFCURVE",
"637 808 OFFCURVE",
"626 808 CURVE SMOOTH",
"486 808 LINE SMOOTH",
"397 808 OFFCURVE",
"358 765 OFFCURVE",
"358 662 CURVE SMOOTH",
"358 508 LINE SMOOTH",
"358 428 OFFCURVE",
"327 381 OFFCURVE",
"276 381 CURVE SMOOTH",
"221 381 LINE SMOOTH",
"209 381 OFFCURVE",
"200 372 OFFCURVE",
"200 360 CURVE SMOOTH",
"200 348 OFFCURVE",
"209 339 OFFCURVE",
"221 339 CURVE SMOOTH",
"276 339 LINE SMOOTH",
"327 339 OFFCURVE",
"358 292 OFFCURVE",
"358 212 CURVE SMOOTH",
"358 58 LINE SMOOTH",
"358 -45 OFFCURVE",
"397 -88 OFFCURVE",
"486 -88 CURVE SMOOTH",
"626 -88 LINE SMOOTH",
"637 -88 OFFCURVE",
"646 -79 OFFCURVE",
"646 -68 CURVE SMOOTH",
"646 -57 OFFCURVE",
"637 -48 OFFCURVE",
"626 -48 CURVE SMOOTH",
"503 -48 LINE SMOOTH",
"434 -48 OFFCURVE",
"405 -24 OFFCURVE",
"405 68 CURVE SMOOTH",
"405 214 LINE SMOOTH",
"405 286 OFFCURVE",
"381 334 OFFCURVE",
"334 358 CURVE",
"333 358 OFFCURVE",
"333 359 OFFCURVE",
"333 360 CURVE SMOOTH",
"333 361 OFFCURVE",
"333 362 OFFCURVE",
"334 362 CURVE"
);
}
);
vertWidth = 1000;
width = 676;
}
);
note = uniFF5B;
unicode = FF5B;
},
{
glyphname = braceright.full;
lastChange = "2017-12-21 08:41:56 +0000";
layers = (
{
layerId = "5B63282A-28A3-4184-9BFD-1C91A342A3DF";
paths = (
{
closed = 1;
nodes = (
"295 334 OFFCURVE",
"271 286 OFFCURVE",
"271 214 CURVE SMOOTH",
"271 68 LINE SMOOTH",
"271 -24 OFFCURVE",
"242 -48 OFFCURVE",
"173 -48 CURVE SMOOTH",
"50 -48 LINE SMOOTH",
"39 -48 OFFCURVE",
"30 -57 OFFCURVE",
"30 -68 CURVE SMOOTH",
"30 -79 OFFCURVE",
"39 -88 OFFCURVE",
"50 -88 CURVE SMOOTH",
"190 -88 LINE SMOOTH",
"279 -88 OFFCURVE",
"318 -45 OFFCURVE",
"318 58 CURVE SMOOTH",
"318 212 LINE SMOOTH",
"318 292 OFFCURVE",
"349 339 OFFCURVE",
"400 339 CURVE SMOOTH",
"455 339 LINE SMOOTH",
"467 339 OFFCURVE",
"476 348 OFFCURVE",
"476 360 CURVE SMOOTH",
"476 372 OFFCURVE",
"467 381 OFFCURVE",
"455 381 CURVE SMOOTH",
"400 381 LINE SMOOTH",
"349 381 OFFCURVE",
"318 428 OFFCURVE",
"318 508 CURVE SMOOTH",
"318 662 LINE SMOOTH",
"318 765 OFFCURVE",
"279 808 OFFCURVE",
"190 808 CURVE SMOOTH",
"50 808 LINE SMOOTH",
"39 808 OFFCURVE",
"30 799 OFFCURVE",
"30 788 CURVE SMOOTH",
"30 777 OFFCURVE",
"39 768 OFFCURVE",
"50 768 CURVE SMOOTH",
"173 768 LINE SMOOTH",
"242 768 OFFCURVE",
"271 744 OFFCURVE",
"271 652 CURVE SMOOTH",
"271 506 LINE SMOOTH",
"271 434 OFFCURVE",
"295 386 OFFCURVE",
"342 362 CURVE",
"343 362 OFFCURVE",
"343 361 OFFCURVE",
"343 360 CURVE SMOOTH",
"343 359 OFFCURVE",
"343 358 OFFCURVE",
"342 358 CURVE"
);
}
);
vertWidth = 1000;
width = 676;
}
);
note = uniFF5D;
unicode = FF5D;
},
{
glyphname = cornerbracketleft;
lastChange = "2017-12-21 08:41:43 +0000";
layers = (
{
layerId = "5B63282A-28A3-4184-9BFD-1C91A342A3DF";
paths = (
{
closed = 1;
nodes = (
"245 80 OFFCURVE",
"247 85 OFFCURVE",
"247 92 CURVE SMOOTH",
"247 772 LINE SMOOTH",
"247 777 OFFCURVE",
"250 780 OFFCURVE",
"255 780 CURVE SMOOTH",
"546 780 LINE SMOOTH",
"558 780 OFFCURVE",
"567 789 OFFCURVE",
"567 801 CURVE SMOOTH",
"567 813 OFFCURVE",
"558 822 OFFCURVE",
"546 822 CURVE SMOOTH",
"257 822 LINE SMOOTH",
"226 822 OFFCURVE",
"200 796 OFFCURVE",
"200 765 CURVE SMOOTH",
"200 92 LINE SMOOTH",
"200 79 OFFCURVE",
"210 68 OFFCURVE",
"223 68 CURVE SMOOTH",
"230 68 OFFCURVE",
"235 70 OFFCURVE",
"240 75 CURVE SMOOTH"
);
}
);
vertWidth = 1000;
width = 597;
}
);
note = uni300C;
unicode = 300C;
},
{
glyphname = cornerbracketright;
lastChange = "2017-12-21 08:41:56 +0000";
layers = (
{
layerId = "5B63282A-28A3-4184-9BFD-1C91A342A3DF";
paths = (
{
closed = 1;
nodes = (
"371 -102 OFFCURVE",
"397 -76 OFFCURVE",
"397 -45 CURVE SMOOTH",
"397 628 LINE SMOOTH",
"397 641 OFFCURVE",
"387 652 OFFCURVE",
"374 652 CURVE SMOOTH",
"361 652 OFFCURVE",
"350 641 OFFCURVE",
"350 628 CURVE SMOOTH",
"350 -52 LINE SMOOTH",
"350 -57 OFFCURVE",
"347 -60 OFFCURVE",
"342 -60 CURVE SMOOTH",
"51 -60 LINE SMOOTH",
"39 -60 OFFCURVE",
"30 -69 OFFCURVE",
"30 -81 CURVE SMOOTH",
"30 -93 OFFCURVE",
"39 -102 OFFCURVE",
"51 -102 CURVE SMOOTH",
"340 -102 LINE SMOOTH"
);
}
);
vertWidth = 1000;
width = 597;
}
);
note = uni300D;
unicode = 300D;
},
{
glyphname = dblanglebracketleft;
lastChange = "2017-12-21 08:41:43 +0000";
layers = (
{
layerId = "5B63282A-28A3-4184-9BFD-1C91A342A3DF";
paths = (
{
closed = 1;
nodes = (
"642 795 OFFCURVE",
"634 808 OFFCURVE",
"623 808 CURVE SMOOTH",
"607 808 OFFCURVE",
"594 801 OFFCURVE",
"585 786 CURVE SMOOTH",
"351 408 LINE SMOOTH",
"342 393 OFFCURVE",
"338 377 OFFCURVE",
"338 360 CURVE SMOOTH",
"338 343 OFFCURVE",
"342 327 OFFCURVE",
"351 312 CURVE SMOOTH",
"585 -66 LINE SMOOTH",
"594 -81 OFFCURVE",
"607 -88 OFFCURVE",
"623 -88 CURVE SMOOTH",
"634 -88 OFFCURVE",
"642 -75 OFFCURVE",
"635 -66 CURVE",
"377 353 LINE SMOOTH",
"374 358 OFFCURVE",
"374 362 OFFCURVE",
"377 367 CURVE SMOOTH",
"635 786 LINE"
);
},
{
closed = 1;
nodes = (
"457 -81 OFFCURVE",
"470 -88 OFFCURVE",
"487 -88 CURVE SMOOTH",
"498 -88 OFFCURVE",
"506 -75 OFFCURVE",
"499 -66 CURVE",
"240 353 LINE SMOOTH",
"237 358 OFFCURVE",
"237 362 OFFCURVE",
"240 367 CURVE SMOOTH",
"499 786 LINE",
"506 795 OFFCURVE",
"498 808 OFFCURVE",
"487 808 CURVE SMOOTH",
"470 808 OFFCURVE",
"457 801 OFFCURVE",
"448 786 CURVE SMOOTH",
"214 408 LINE SMOOTH",
"205 393 OFFCURVE",
"200 377 OFFCURVE",
"200 360 CURVE SMOOTH",
"200 343 OFFCURVE",
"205 327 OFFCURVE",
"214 312 CURVE SMOOTH",
"448 -66 LINE SMOOTH"
);
}
);
vertWidth = 1000;
width = 668;
}
);
note = uni300A;
unicode = 300A;
},
{
glyphname = dblanglebracketright;
lastChange = "2017-12-21 08:41:56 +0000";
layers = (
{
layerId = "5B63282A-28A3-4184-9BFD-1C91A342A3DF";
paths = (
{
closed = 1;
nodes = (
"26 -75 OFFCURVE",
"34 -88 OFFCURVE",
"45 -88 CURVE SMOOTH",
"61 -88 OFFCURVE",
"74 -81 OFFCURVE",
"83 -66 CURVE SMOOTH",
"317 312 LINE SMOOTH",
"326 327 OFFCURVE",
"330 343 OFFCURVE",
"330 360 CURVE SMOOTH",
"330 377 OFFCURVE",
"326 393 OFFCURVE",
"317 408 CURVE SMOOTH",
"83 786 LINE SMOOTH",
"74 801 OFFCURVE",
"61 808 OFFCURVE",
"45 808 CURVE SMOOTH",
"34 808 OFFCURVE",
"26 795 OFFCURVE",
"33 786 CURVE",
"291 367 LINE SMOOTH",
"294 362 OFFCURVE",
"294 358 OFFCURVE",
"291 353 CURVE SMOOTH",
"33 -66 LINE"
);
},
{
closed = 1;
nodes = (
"170 808 OFFCURVE",
"162 795 OFFCURVE",
"169 786 CURVE",
"428 367 LINE SMOOTH",
"431 362 OFFCURVE",
"431 358 OFFCURVE",
"428 353 CURVE SMOOTH",
"169 -66 LINE",
"162 -75 OFFCURVE",
"170 -88 OFFCURVE",
"181 -88 CURVE SMOOTH",
"198 -88 OFFCURVE",
"211 -81 OFFCURVE",
"220 -66 CURVE SMOOTH",
"454 312 LINE SMOOTH",
"463 327 OFFCURVE",
"468 343 OFFCURVE",
"468 360 CURVE SMOOTH",
"468 377 OFFCURVE",
"463 393 OFFCURVE",
"454 408 CURVE SMOOTH",
"220 786 LINE SMOOTH",
"211 801 OFFCURVE",
"198 808 OFFCURVE",
"181 808 CURVE SMOOTH"
);
}
);
vertWidth = 1000;
width = 668;
}
);
note = uni300B;
unicode = 300B;
},
{
glyphname = tortoiseshellbracketleft;
lastChange = "2017-12-21 08:41:43 +0000";
layers = (
{
layerId = "5B63282A-28A3-4184-9BFD-1C91A342A3DF";
paths = (
{
closed = 1;
nodes = (
"519 -88 OFFCURVE",
"530 -80 OFFCURVE",
"530 -71 CURVE SMOOTH",
"530 -57 OFFCURVE",
"523 -48 OFFCURVE",
"510 -43 CURVE SMOOTH",
"254 50 LINE SMOOTH",
"249 52 OFFCURVE",
"246 56 OFFCURVE",
"246 61 CURVE SMOOTH",
"246 659 LINE SMOOTH",
"246 664 OFFCURVE",
"249 668 OFFCURVE",
"254 670 CURVE SMOOTH",
"510 763 LINE SMOOTH",
"523 768 OFFCURVE",
"530 777 OFFCURVE",
"530 791 CURVE SMOOTH",
"530 800 OFFCURVE",
"519 808 OFFCURVE",
"510 805 CURVE SMOOTH",
"253 713 LINE SMOOTH",
"221 702 OFFCURVE",
"200 672 OFFCURVE",
"200 637 CURVE SMOOTH",
"200 83 LINE SMOOTH",
"200 48 OFFCURVE",
"221 18 OFFCURVE",
"253 7 CURVE SMOOTH",
"510 -85 LINE SMOOTH"
);
}
);
vertWidth = 1000;
width = 560;
}
);
note = uni3014;
unicode = 3014;
},
{
glyphname = tortoiseshellbracketright;
lastChange = "2017-12-21 08:41:56 +0000";
layers = (
{
layerId = "5B63282A-28A3-4184-9BFD-1C91A342A3DF";
paths = (
{
closed = 1;
nodes = (
"37 -48 OFFCURVE",
"30 -57 OFFCURVE",
"30 -71 CURVE SMOOTH",
"30 -80 OFFCURVE",
"41 -88 OFFCURVE",
"50 -85 CURVE SMOOTH",
"307 7 LINE SMOOTH",
"339 18 OFFCURVE",
"360 48 OFFCURVE",
"360 83 CURVE SMOOTH",
"360 637 LINE SMOOTH",
"360 672 OFFCURVE",
"339 702 OFFCURVE",
"307 713 CURVE SMOOTH",
"50 805 LINE SMOOTH",
"41 808 OFFCURVE",
"30 800 OFFCURVE",
"30 791 CURVE SMOOTH",
"30 777 OFFCURVE",
"37 768 OFFCURVE",
"50 763 CURVE SMOOTH",
"306 670 LINE SMOOTH",
"311 668 OFFCURVE",
"314 664 OFFCURVE",
"314 659 CURVE SMOOTH",
"314 61 LINE SMOOTH",
"314 56 OFFCURVE",
"311 52 OFFCURVE",
"306 50 CURVE SMOOTH",
"50 -43 LINE SMOOTH"
);
}
);
vertWidth = 1000;
width = 560;
}
);
note = uni3015;
unicode = 3015;
},
{
glyphname = whitecornerbracketleft;
lastChange = "2017-12-21 08:41:43 +0000";
layers = (
{
layerId = "5B63282A-28A3-4184-9BFD-1C91A342A3DF";
paths = (
{
closed = 1;
nodes = (
"233 785 OFFCURVE",
"236 788 OFFCURVE",
"242 788 CURVE SMOOTH",
"558 788 LINE SMOOTH",
"563 788 OFFCURVE",
"566 785 OFFCURVE",
"566 780 CURVE SMOOTH",
"566 725 LINE SMOOTH",
"566 720 OFFCURVE",
"563 717 OFFCURVE",
"558 717 CURVE SMOOTH",
"361 717 LINE SMOOTH",
"330 717 OFFCURVE",
"305 691 OFFCURVE",
"305 660 CURVE SMOOTH",
"305 77 LINE SMOOTH",
"305 71 OFFCURVE",
"302 68 OFFCURVE",
"296 68 CURVE SMOOTH",
"242 68 LINE SMOOTH",
"236 68 OFFCURVE",
"233 71 OFFCURVE",
"233 77 CURVE SMOOTH",
"233 780 LINE SMOOTH"
);
},
{
closed = 1;
nodes = (
"312 35 OFFCURVE",
"338 61 OFFCURVE",
"338 92 CURVE SMOOTH",
"338 675 LINE SMOOTH",
"338 680 OFFCURVE",
"341 683 OFFCURVE",
"347 683 CURVE SMOOTH",
"543 683 LINE SMOOTH",
"574 683 OFFCURVE",
"600 709 OFFCURVE",
"600 740 CURVE SMOOTH",
"600 765 LINE SMOOTH",
"600 796 OFFCURVE",
"574 822 OFFCURVE",
"543 822 CURVE SMOOTH",
"256 822 LINE SMOOTH",
"225 822 OFFCURVE",
"200 796 OFFCURVE",
"200 765 CURVE SMOOTH",
"200 92 LINE SMOOTH",
"200 61 OFFCURVE",
"225 35 OFFCURVE",
"256 35 CURVE SMOOTH",
"281 35 LINE SMOOTH"
);
}
);
vertWidth = 1000;
width = 630;
}
);
note = uni300E;
unicode = 300E;
},
{
glyphname = whitecornerbracketright;
lastChange = "2017-12-21 08:41:56 +0000";
layers = (
{
layerId = "5B63282A-28A3-4184-9BFD-1C91A342A3DF";
paths = (
{
closed = 1;
nodes = (
"64 0 OFFCURVE",
"67 3 OFFCURVE",
"72 3 CURVE SMOOTH",
"269 3 LINE SMOOTH",
"300 3 OFFCURVE",
"325 29 OFFCURVE",
"325 60 CURVE SMOOTH",
"325 643 LINE SMOOTH",
"325 649 OFFCURVE",
"328 652 OFFCURVE",
"334 652 CURVE SMOOTH",
"388 652 LINE SMOOTH",
"394 652 OFFCURVE",
"397 649 OFFCURVE",
"397 643 CURVE SMOOTH",
"397 -60 LINE SMOOTH",
"397 -65 OFFCURVE",
"394 -68 OFFCURVE",
"388 -68 CURVE SMOOTH",
"72 -68 LINE SMOOTH",
"67 -68 OFFCURVE",
"64 -65 OFFCURVE",
"64 -60 CURVE SMOOTH",
"64 -5 LINE SMOOTH"
);
},
{
closed = 1;
nodes = (
"405 -102 OFFCURVE",
"430 -76 OFFCURVE",
"430 -45 CURVE SMOOTH",
"430 628 LINE SMOOTH",
"430 659 OFFCURVE",
"405 685 OFFCURVE",
"374 685 CURVE SMOOTH",
"349 685 LINE SMOOTH",
"318 685 OFFCURVE",
"292 659 OFFCURVE",
"292 628 CURVE SMOOTH",
"292 45 LINE SMOOTH",
"292 40 OFFCURVE",
"289 37 OFFCURVE",
"283 37 CURVE SMOOTH",
"87 37 LINE SMOOTH",
"56 37 OFFCURVE",
"30 11 OFFCURVE",
"30 -20 CURVE SMOOTH",
"30 -45 LINE SMOOTH",
"30 -76 OFFCURVE",
"56 -102 OFFCURVE",
"87 -102 CURVE SMOOTH",
"374 -102 LINE SMOOTH"
);
}
);
vertWidth = 1000;
width = 630;
}
);
note = uni300F;
unicode = 300F;
},
{
glyphname = whitelenticularbracketleft;
lastChange = "2017-12-21 08:41:43 +0000";
layers = (
{
layerId = "5B63282A-28A3-4184-9BFD-1C91A342A3DF";
paths = (
{
closed = 1;
nodes = (
"233 771 OFFCURVE",
"236 774 OFFCURVE",
"242 774 CURVE SMOOTH",
"437 774 LINE SMOOTH",
"442 774 OFFCURVE",
"443 772 OFFCURVE",
"440 767 CURVE",
"347 647 OFFCURVE",
"301 511 OFFCURVE",
"301 360 CURVE SMOOTH",
"301 209 OFFCURVE",
"347 73 OFFCURVE",
"440 -47 CURVE",
"441 -50 OFFCURVE",
"440 -54 OFFCURVE",
"437 -54 CURVE SMOOTH",
"242 -54 LINE SMOOTH",
"236 -54 OFFCURVE",
"233 -51 OFFCURVE",
"233 -46 CURVE SMOOTH",
"233 766 LINE SMOOTH"
);
},
{
closed = 1;
nodes = (
"479 -88 OFFCURVE",
"491 -61 OFFCURVE",
"476 -44 CURVE",
"382 73 OFFCURVE",
"335 207 OFFCURVE",
"335 360 CURVE SMOOTH",
"335 513 OFFCURVE",
"382 648 OFFCURVE",
"476 765 CURVE",
"491 782 OFFCURVE",
"479 808 OFFCURVE",
"458 808 CURVE SMOOTH",
"256 808 LINE SMOOTH",
"225 808 OFFCURVE",
"200 782 OFFCURVE",
"200 751 CURVE SMOOTH",
"200 -31 LINE SMOOTH",
"200 -62 OFFCURVE",
"225 -88 OFFCURVE",
"256 -88 CURVE SMOOTH",
"458 -88 LINE SMOOTH"
);
}
);
vertWidth = 1000;
width = 513;
}
);
note = uni3016;
unicode = 3016;
},
{
glyphname = whitelenticularbracketright;
lastChange = "2017-12-21 08:41:56 +0000";
layers = (
{
layerId = "5B63282A-28A3-4184-9BFD-1C91A342A3DF";
paths = (
{
closed = 1;
nodes = (
"166 73 OFFCURVE",
"212 209 OFFCURVE",
"212 360 CURVE SMOOTH",
"212 511 OFFCURVE",
"166 647 OFFCURVE",
"73 767 CURVE",
"72 770 OFFCURVE",
"73 774 OFFCURVE",
"76 774 CURVE SMOOTH",
"271 774 LINE SMOOTH",
"277 774 OFFCURVE",
"280 771 OFFCURVE",
"280 766 CURVE SMOOTH",
"280 -46 LINE SMOOTH",
"280 -51 OFFCURVE",
"277 -54 OFFCURVE",
"271 -54 CURVE SMOOTH",
"76 -54 LINE SMOOTH",
"71 -54 OFFCURVE",
"70 -52 OFFCURVE",
"73 -47 CURVE"
);
},
{
closed = 1;
nodes = (
"288 -88 OFFCURVE",
"313 -62 OFFCURVE",
"313 -31 CURVE SMOOTH",
"313 751 LINE SMOOTH",
"313 782 OFFCURVE",
"288 808 OFFCURVE",
"257 808 CURVE SMOOTH",
"55 808 LINE SMOOTH",
"34 808 OFFCURVE",
"22 781 OFFCURVE",
"37 764 CURVE",
"131 647 OFFCURVE",
"178 513 OFFCURVE",
"178 360 CURVE SMOOTH",
"178 207 OFFCURVE",
"131 72 OFFCURVE",
"37 -45 CURVE",
"22 -62 OFFCURVE",
"34 -88 OFFCURVE",
"55 -88 CURVE SMOOTH",
"257 -88 LINE SMOOTH"
);
}
);
vertWidth = 1000;
width = 513;
}
);
note = uni3017;
unicode = 3017;
},
{
glyphname = bracketleft.full;
lastChange = "2017-12-21 08:41:43 +0000";
layers = (
{
layerId = "5B63282A-28A3-4184-9BFD-1C91A342A3DF";
paths = (
{
closed = 1;
nodes = (
"521 -88 OFFCURVE",
"530 -79 OFFCURVE",
"530 -68 CURVE SMOOTH",
"530 -57 OFFCURVE",
"521 -48 OFFCURVE",
"510 -48 CURVE SMOOTH",
"255 -48 LINE SMOOTH",
"249 -48 OFFCURVE",
"246 -45 OFFCURVE",
"246 -39 CURVE SMOOTH",
"246 759 LINE SMOOTH",
"246 765 OFFCURVE",
"249 768 OFFCURVE",
"255 768 CURVE SMOOTH",
"510 768 LINE SMOOTH",
"521 768 OFFCURVE",
"530 777 OFFCURVE",
"530 788 CURVE SMOOTH",
"530 799 OFFCURVE",
"521 808 OFFCURVE",
"510 808 CURVE SMOOTH",
"256 808 LINE SMOOTH",
"225 808 OFFCURVE",
"200 782 OFFCURVE",
"200 751 CURVE SMOOTH",
"200 -31 LINE SMOOTH",
"200 -62 OFFCURVE",
"225 -88 OFFCURVE",
"256 -88 CURVE SMOOTH",
"510 -88 LINE SMOOTH"
);
}
);
vertWidth = 1000;
width = 560;
}
);
note = uniFF3B;
unicode = FF3B;
},
{
glyphname = bracketright.full;
lastChange = "2017-12-21 08:41:56 +0000";
layers = (
{
layerId = "5B63282A-28A3-4184-9BFD-1C91A342A3DF";
paths = (
{
closed = 1;
nodes = (
"39 -48 OFFCURVE",
"30 -57 OFFCURVE",
"30 -68 CURVE SMOOTH",
"30 -79 OFFCURVE",
"39 -88 OFFCURVE",
"50 -88 CURVE SMOOTH",
"304 -88 LINE SMOOTH",
"335 -88 OFFCURVE",
"360 -62 OFFCURVE",
"360 -31 CURVE SMOOTH",
"360 751 LINE SMOOTH",
"360 782 OFFCURVE",
"335 807 OFFCURVE",
"304 807 CURVE SMOOTH",
"50 807 LINE SMOOTH",
"39 807 OFFCURVE",
"30 798 OFFCURVE",
"30 787 CURVE SMOOTH",
"30 776 OFFCURVE",
"39 767 OFFCURVE",
"50 767 CURVE SMOOTH",
"305 767 LINE SMOOTH",
"311 767 OFFCURVE",
"314 764 OFFCURVE",
"314 759 CURVE SMOOTH",
"314 -39 LINE SMOOTH",
"314 -45 OFFCURVE",
"311 -48 OFFCURVE",
"305 -48 CURVE SMOOTH",
"50 -48 LINE SMOOTH"
);
}
);
vertWidth = 1000;
width = 560;
}
);
note = uniFF3D;
unicode = FF3D;
},
{
glyphname = parenleft.full;
lastChange = "2017-12-21 08:41:43 +0000";
layers = (
{
layerId = "5B63282A-28A3-4184-9BFD-1C91A342A3DF";
paths = (
{
closed = 1;
nodes = (
"406 -82 OFFCURVE",
"422 -88 OFFCURVE",
"440 -88 CURVE SMOOTH",
"448 -88 OFFCURVE",
"453 -76 OFFCURVE",
"446 -69 CURVE",
"315 47 OFFCURVE",
"249 190 OFFCURVE",
"249 360 CURVE SMOOTH",
"249 530 OFFCURVE",
"315 673 OFFCURVE",
"446 789 CURVE",
"453 796 OFFCURVE",
"449 808 OFFCURVE",
"440 808 CURVE SMOOTH",
"422 808 OFFCURVE",
"406 802 OFFCURVE",
"392 789 CURVE SMOOTH",
"264 673 OFFCURVE",
"200 530 OFFCURVE",
"200 360 CURVE SMOOTH",
"200 190 OFFCURVE",
"264 47 OFFCURVE",
"392 -69 CURVE SMOOTH"
);
}
);
vertWidth = 1000;
width = 480;
}
);
note = uniFF08;
unicode = FF08;
},
{
glyphname = parenright.full;
lastChange = "2017-12-21 08:41:56 +0000";
layers = (
{
layerId = "5B63282A-28A3-4184-9BFD-1C91A342A3DF";
paths = (
{
closed = 1;
nodes = (
"27 -76 OFFCURVE",
"31 -88 OFFCURVE",
"40 -88 CURVE SMOOTH",
"58 -88 OFFCURVE",
"74 -82 OFFCURVE",
"88 -69 CURVE SMOOTH",
"216 47 OFFCURVE",
"280 190 OFFCURVE",
"280 360 CURVE SMOOTH",
"280 530 OFFCURVE",
"216 673 OFFCURVE",
"88 789 CURVE SMOOTH",
"74 802 OFFCURVE",
"58 808 OFFCURVE",
"40 808 CURVE SMOOTH",
"32 808 OFFCURVE",
"27 796 OFFCURVE",
"34 789 CURVE",
"165 673 OFFCURVE",
"231 530 OFFCURVE",
"231 360 CURVE SMOOTH",
"231 190 OFFCURVE",
"165 47 OFFCURVE",
"34 -69 CURVE"
);
}
);
vertWidth = 1000;
width = 480;
}
);
note = uniFF09;
unicode = FF09;
},
{
glyphname = "dot-kata";
lastChange = "2017-12-21 08:41:24 +0000";
layers = (
{
layerId = "5B63282A-28A3-4184-9BFD-1C91A342A3DF";
paths = (
{
closed = 1;
nodes = (
"211 311 OFFCURVE",
"214 318 OFFCURVE",
"214 327 CURVE SMOOTH",
"214 393 LINE SMOOTH",
"214 410 OFFCURVE",
"199 425 OFFCURVE",
"182 425 CURVE SMOOTH",
"163 425 OFFCURVE",
"150 410 OFFCURVE",
"150 393 CURVE SMOOTH",
"150 327 LINE SMOOTH",
"150 310 OFFCURVE",
"165 295 OFFCURVE",
"182 295 CURVE SMOOTH",
"191 295 OFFCURVE",
"198 298 OFFCURVE",
"205 305 CURVE SMOOTH"
);
}
);
vertWidth = 1000;
width = 364;
}
);
note = uni30FB;
unicode = 30FB;
},
{
glyphname = "comma-han";
lastChange = "2017-12-21 08:42:08 +0000";
layers = (
{
layerId = "5B63282A-28A3-4184-9BFD-1C91A342A3DF";
paths = (
{
closed = 1;
nodes = (
"235 -37 OFFCURVE",
"251 -39 OFFCURVE",
"262 -30 CURVE SMOOTH",
"275 -19 OFFCURVE",
"276 -7 OFFCURVE",
"265 6 CURVE SMOOTH",
"209 70 OFFCURVE",
"152 129 OFFCURVE",
"95 183 CURVE SMOOTH",
"90 188 OFFCURVE",
"84 190 OFFCURVE",
"77 190 CURVE SMOOTH",
"62 190 OFFCURVE",
"50 180 OFFCURVE",
"50 166 CURVE SMOOTH",
"50 159 OFFCURVE",
"53 153 OFFCURVE",
"58 148 CURVE SMOOTH",
"118 91 OFFCURVE",
"174 33 OFFCURVE",
"226 -26 CURVE"
);
}
);
vertWidth = 1000;
width = 473;
}
);
note = uni3001;
unicode = 3001;
},
{
glyphname = "period-han";
lastChange = "2017-12-21 08:42:15 +0000";
layers = (
{
layerId = "5B63282A-28A3-4184-9BFD-1C91A342A3DF";
paths = (
{
closed = 1;
nodes = (
"293 132 OFFCURVE",
"303 106 OFFCURVE",
"303 77 CURVE SMOOTH",
"303 18 OFFCURVE",
"255 -29 OFFCURVE",
"196 -29 CURVE SMOOTH",
"137 -29 OFFCURVE",
"90 18 OFFCURVE",
"90 77 CURVE SMOOTH",
"90 136 OFFCURVE",
"137 184 OFFCURVE",
"196 184 CURVE SMOOTH",
"225 184 OFFCURVE",
"251 174 OFFCURVE",
"272 153 CURVE SMOOTH"
);
},
{
closed = 1;
nodes = (
"329 2 OFFCURVE",
"343 36 OFFCURVE",
"343 77 CURVE SMOOTH",
"343 158 OFFCURVE",
"277 224 OFFCURVE",
"196 224 CURVE SMOOTH",
"115 224 OFFCURVE",
"50 158 OFFCURVE",
"50 77 CURVE SMOOTH",
"50 -4 OFFCURVE",
"115 -69 OFFCURVE",
"196 -69 CURVE SMOOTH",
"237 -69 OFFCURVE",
"271 -55 OFFCURVE",
"300 -26 CURVE SMOOTH"
);
}
